<svg width="26" height="32" viewBox="0 0 26 32" fill="none" xmlns="http://www.w3.org/2000/svg">
<path d="M21.7159 17.0175C21.7476 14.5472 23.0725 12.2098 25.1742 10.916C23.8483 9.01984 21.6275 7.81763 19.317 7.74524C16.8526 7.48623 14.4635 9.22186 13.2077 9.22186C11.9276 9.22186 9.99411 7.77096 7.91204 7.81386C5.19816 7.90165 2.66815 9.44668 1.34779 11.8225C-1.49046 16.743 0.626619 23.9746 3.34542 27.952C4.7057 29.8996 6.29547 32.0752 8.37566 31.998C10.4112 31.9135 11.1715 30.6982 13.6286 30.6982C16.0629 30.6982 16.7762 31.998 18.8986 31.949C21.0829 31.9135 22.4591 29.9927 23.7716 28.0266C24.749 26.6389 25.5011 25.1051 26 23.4821C23.4331 22.395 21.7189 19.8083 21.7159 17.0175Z" fill="black"/>
<path d="M17.707 5.12951C18.898 3.6979 19.4847 1.85781 19.3426 0C17.5231 0.191361 15.8424 1.06213 14.6353 2.43882C13.455 3.78391 12.8407 5.59163 12.9569 7.37843C14.777 7.39719 16.5664 6.55002 17.707 5.12951Z" fill="black"/>
</svg>
