<svg width="18" height="14" viewBox="0 0 18 14" fill="none" xmlns="http://www.w3.org/2000/svg">
<path d="M16 6.70709L16.7071 5.99999L17.4142 6.70709L16.7071 7.4142L16 6.70709ZM1 7.70709C0.447715 7.70709 0 7.25938 0 6.70709C0 6.15481 0.447715 5.70709 1 5.70709V6.70709V7.70709ZM10 0.707092L10.7071 -1.44839e-05L16.7071 5.99999L16 6.70709L15.2929 7.4142L9.29289 1.4142L10 0.707092ZM16 6.70709L16.7071 7.4142L10.7071 13.4142L10 12.7071L9.29289 12L15.2929 5.99999L16 6.70709ZM16 6.70709V7.70709H1V6.70709V5.70709H16V6.70709Z" fill="#FF6969"/>
</svg>
