<svg width="25" height="23" viewBox="0 0 25 23" fill="none" xmlns="http://www.w3.org/2000/svg">
<path d="M18.5812 18.1425L14.183 18.2022C13.2606 18.2147 12.3851 18.1031 11.4917 17.92C8.99579 17.4085 7.82617 15.4957 6.98741 13.2699C6.55721 12.1282 6.16711 11.0234 5.83458 9.84287L4.12343 3.76761C3.94363 3.12925 3.60828 2.5521 3.12494 2.15522C2.66247 1.77555 2.07651 1.76142 1.62545 2.12654C0.935568 2.68497 0.820274 3.83113 0.439247 3.7769C0.0921669 3.72751 -0.0612964 2.75458 0.022397 2.23522C0.249803 0.824838 1.48586 -0.118003 2.91543 0.0119433C4.59738 0.164834 5.9006 1.70891 6.31698 3.2108L7.31269 6.80289L8.55208 11.547C8.82465 12.5904 9.14545 13.5791 9.6195 14.532C10.0403 15.378 10.6912 16.0177 11.5703 16.3469C12.1953 16.5809 12.804 16.7472 13.4802 16.839C15.6002 17.1265 17.6874 17.3957 19.8273 17.4526L21.8177 17.5054C22.06 17.5118 22.2849 17.6052 22.4875 17.7469C22.3479 17.8445 22.1954 17.911 22.0318 17.9321C20.8776 18.0811 19.7575 18.1266 18.5812 18.1425Z" fill="black"/>
<path d="M19.1905 20.8876C19.4938 20.7344 19.6414 20.4723 19.636 20.1809C19.6308 19.9035 19.4873 19.6583 19.2237 19.5098C18.9418 19.3511 18.623 19.3408 18.321 19.4967C18.1021 19.6096 17.8889 19.8578 17.877 20.1599C17.8642 20.4805 18.0623 20.7423 18.2847 20.869C18.5717 21.0328 18.8969 21.036 19.1905 20.8876ZM20.2667 21.3477C19.5578 22.2095 18.2495 22.24 17.4839 21.4713C16.8313 20.8161 16.8934 19.8001 17.588 19.2081C18.3057 18.5965 19.3727 18.6013 20.077 19.2291C20.6944 19.7794 20.8188 20.6765 20.2667 21.3477Z" fill="black"/>
<path d="M13.0521 20.2327C13.0746 19.8877 12.8522 19.636 12.6372 19.5112C12.3651 19.3533 12.0695 19.3501 11.7948 19.4646C11.5033 19.5863 11.3082 19.8574 11.291 20.1353C11.2715 20.4505 11.4399 20.7208 11.7236 20.876C11.9956 21.0248 12.3098 21.0444 12.6129 20.8874C12.8097 20.7856 13.0309 20.5591 13.0521 20.2327ZM13.5896 21.4505C12.9015 22.1662 11.7988 22.1971 11.0449 21.6053C10.2932 21.0152 10.2353 19.9304 10.9284 19.2733C11.6277 18.6105 12.7125 18.5803 13.4541 19.1963C14.1414 19.7671 14.234 20.7803 13.5896 21.4505Z" fill="black"/>
<path d="M20.642 13.3871C20.5658 12.3701 20.6473 11.499 20.745 10.4853L19.4509 10.4937L19.4869 11.3573C19.5158 12.049 19.5331 12.6953 19.4162 13.3905L20.642 13.3871ZM18.4972 13.3818C18.4032 12.6845 18.3713 12.2024 18.3506 11.6176C18.3313 11.2467 18.3329 10.8556 18.3622 10.4886L16.613 10.4319L16.7215 11.675C16.7722 12.256 16.7775 12.7954 16.706 13.3961L18.4972 13.3818ZM21.5662 13.4225L22.6578 13.3826L23.0591 10.3245L21.8338 10.4487L21.7908 11.7148C21.7709 12.2999 21.6746 12.8463 21.5662 13.4225ZM15.7876 13.4119L15.5814 11.911L15.5168 10.3898L13.7103 10.2754L13.9349 11.7903C14.0136 12.3206 14.019 12.8404 14.0137 13.387L15.7876 13.4119ZM13.0692 13.3268C12.8149 12.2218 12.6972 11.2466 12.6313 10.1666L10.7609 9.99288C11.0276 11.084 11.2852 12.0581 11.5985 13.064C11.5815 13.1079 11.5697 13.2085 11.6007 13.2062C11.6317 13.2039 11.714 13.1799 11.7511 13.1839L13.0692 13.3268ZM23.2 9.43617C23.3567 8.40083 23.4962 7.49052 23.7074 6.54158C23.8035 6.2832 23.8545 6.02831 23.8532 5.75147L22.012 5.61882L21.9352 7.46017L21.8714 9.33246L23.2 9.43617ZM21.1934 7.59002L21.6515 5.59149L19.1741 5.45862L19.2098 6.16066L19.3778 9.37694L20.9026 9.319C20.9917 8.74061 21.0586 8.17785 21.1934 7.59002ZM18.6933 6.55045L18.8506 5.43907L16.1387 5.3195L16.5172 9.47737L18.3976 9.40489C18.4491 8.43211 18.5294 7.52515 18.6933 6.55045ZM15.5939 7.76298L15.8414 5.32216L14.4679 5.25886L12.904 5.21083L13.0655 6.16118L13.6011 9.58567L15.5138 9.51502L15.5939 7.76298ZM10.4923 13.689C10.2003 12.7702 10 11.871 9.85217 10.9315C9.66069 9.71427 9.49445 8.53281 9.41066 7.30473C9.37926 6.8446 9.32508 6.42368 9.51703 5.96537C9.68734 6.19575 9.7873 6.41023 9.86568 6.65927C10.1784 7.65358 10.4354 8.65248 10.6864 9.67328L12.6011 9.60909C12.5216 8.51012 12.5258 7.48823 12.5929 6.42097L12.6451 5.20103C11.1056 5.15154 9.61288 5.14304 8.0896 5.17985C7.83649 5.18596 7.57613 5.34547 7.34888 5.08646C8.13283 4.93451 8.88399 4.87053 9.65756 4.83111L11.9236 4.71576L19.9849 4.69751L23.5815 4.74882C24.0414 4.75539 25.1018 4.67571 24.992 5.43438L24.2098 10.8387C24.0819 11.7226 23.965 12.5566 23.9035 13.4397C23.8665 13.9726 23.6439 14.4216 23.0815 14.5683C22.7222 14.662 22.3106 14.7071 21.9164 14.7086L19.5705 14.7177L13.854 14.7255C12.9672 14.7267 12.1346 14.586 11.2827 14.3991C10.897 14.3144 10.6242 14.104 10.4923 13.689Z" fill="black"/>
</svg>
