<svg width="22" height="22" viewBox="0 0 22 22" fill="none" xmlns="http://www.w3.org/2000/svg">
<path d="M11.0064 0C8.01837 0 7.64432 0.0128931 6.47059 0.0644657C5.30115 0.116038 4.49717 0.305138 3.80066 0.575894C3.07407 0.859543 2.45925 1.23344 1.84874 1.84802C1.23393 2.45829 0.859879 3.07287 0.576119 3.79488C0.305257 4.49541 0.116084 5.29478 0.0644909 6.46376C0.0128982 7.64134 0 8.01524 0 11.0021C0 13.9891 0.0128982 14.363 0.0644909 15.5362C0.116084 16.7052 0.305257 17.5089 0.576119 18.2051C0.859879 18.9314 1.23393 19.546 1.84874 20.1563C2.45925 20.7666 3.07407 21.1448 3.79637 21.4241C4.49717 21.6949 5.29685 21.884 6.46629 21.9355C7.64002 21.9871 8.01407 22 11.0021 22C13.9902 22 14.3643 21.9871 15.538 21.9355C16.7074 21.884 17.5114 21.6949 18.2079 21.4241C18.9302 21.1448 19.545 20.7666 20.1556 20.1563C20.7661 19.546 21.1444 18.9314 21.4239 18.2094C21.6947 17.5089 21.8839 16.7095 21.9355 15.5405C21.9871 14.3673 22 13.9934 22 11.0064C22 8.01954 21.9871 7.64563 21.9355 6.47236C21.8839 5.30338 21.6947 4.49971 21.4239 3.80348C21.153 3.07287 20.779 2.45829 20.1642 1.84802C19.5536 1.23774 18.9388 0.859543 18.2165 0.580191C17.5157 0.309435 16.716 0.120336 15.5466 0.0687634C14.3686 0.0128932 13.9945 0 11.0064 0Z" fill="black"/>
<path d="M11.0065 5.35059C7.88513 5.35059 5.35278 7.88194 5.35278 11.0021C5.35278 14.1222 7.88513 16.6536 11.0065 16.6536C14.1278 16.6536 16.6602 14.1222 16.6602 11.0021C16.6602 7.88194 14.1278 5.35059 11.0065 5.35059ZM11.0065 14.668C8.98147 14.668 7.3391 13.0263 7.3391 11.0021C7.3391 8.97786 8.98147 7.33613 11.0065 7.33613C13.0315 7.33613 14.6739 8.97786 14.6739 11.0021C14.6739 13.0263 13.0315 14.668 11.0065 14.668Z" fill="white"/>
<path d="M18.2038 5.12702C18.2038 5.85763 17.6105 6.44642 16.8839 6.44642C16.153 6.44642 15.564 5.85333 15.564 5.12702C15.564 4.3964 16.1573 3.80762 16.8839 3.80762C17.6105 3.80762 18.2038 4.4007 18.2038 5.12702Z" fill="white"/>
</svg>
