<svg width="36" height="23" viewBox="0 0 36 23" fill="none" xmlns="http://www.w3.org/2000/svg">
<path d="M22.2907 20.3041H12.7996V2.43164H22.2907V20.3041Z" fill="#FF5F00"/>
<path d="M13.4075 11.3664C13.4075 7.74088 15.0276 4.51138 17.5504 2.43015C15.7055 0.90826 13.3772 -0.000104904 10.8467 -0.000104904C4.85608 -0.000104904 0 5.08877 0 11.3664C0 17.644 4.85608 22.7329 10.8467 22.7329C13.3772 22.7329 15.7055 21.8245 17.5504 20.3026C15.0276 18.2214 13.4075 14.9919 13.4075 11.3664Z" fill="#EB001B"/>
<path d="M35.0912 11.3664C35.0912 17.644 30.2351 22.7329 24.2445 22.7329C21.714 22.7329 19.3856 21.8245 17.54 20.3026C20.0636 18.2214 21.6837 14.9919 21.6837 11.3664C21.6837 7.74088 20.0636 4.51138 17.54 2.43015C19.3856 0.90826 21.714 -0.000104904 24.2445 -0.000104904C30.2351 -0.000104904 35.0912 5.08877 35.0912 11.3664Z" fill="#F79E1B"/>
</svg>
