<svg width="20" height="20" viewBox="0 0 20 20" fill="none" xmlns="http://www.w3.org/2000/svg">
<path d="M1.75751 1.69566L3.16025 0.292922C3.55077 -0.0976021 4.18394 -0.0976028 4.57446 0.292921L7.79183 3.51029C8.18235 3.90081 8.18235 4.53398 7.79183 4.9245L5.60475 7.11157C5.25868 7.45765 5.17288 7.98635 5.39176 8.4241C6.65706 10.9547 8.709 13.0066 11.2396 14.2719C11.6773 14.4908 12.206 14.405 12.5521 14.0589L14.7392 11.8719C15.1297 11.4813 15.7629 11.4813 16.1534 11.8719L19.3708 15.0892C19.7613 15.4798 19.7613 16.1129 19.3708 16.5034L17.968 17.9062C15.8567 20.0175 12.5141 20.2551 10.1254 18.4636L7.65382 16.6099C5.91029 15.3022 4.36147 13.7534 3.05382 12.0099L1.20014 9.53831C-0.591397 7.14958 -0.353846 3.80702 1.75751 1.69566Z" fill="black"/>
</svg>
