<svg width="25" height="24" viewBox="0 0 25 24" fill="none" xmlns="http://www.w3.org/2000/svg">
<path d="M11.7144 0.845947C11.864 0.385291 12.5159 0.385294 12.6655 0.845947L14.8579 7.59204C15.0587 8.21007 15.6348 8.62817 16.2847 8.62817H23.3784C23.8625 8.62844 24.064 9.24877 23.6724 9.53345L17.9331 13.7024C17.4074 14.0844 17.1874 14.7621 17.3882 15.3801L19.5806 22.1262C19.7302 22.5868 19.2029 22.9701 18.811 22.6858L13.0718 18.5159C12.546 18.1339 11.8338 18.1339 11.3081 18.5159L5.56885 22.6858C5.17702 22.9701 4.64968 22.5868 4.79932 22.1262L6.9917 15.3801C7.19251 14.7621 6.97251 14.0844 6.44678 13.7024L0.70752 9.53345C0.31589 9.24877 0.517373 8.62844 1.00146 8.62817H8.09521C8.74505 8.62817 9.32116 8.21008 9.52197 7.59204L11.7144 0.845947Z" stroke="#BCBCBC"/>
</svg>
