<svg width="24" height="20" viewBox="0 0 24 20" fill="none" xmlns="http://www.w3.org/2000/svg">
<path fill-rule="evenodd" clip-rule="evenodd" d="M5.16793 12.1155C5.2196 12.1268 5.27175 12.138 5.32377 12.1493C5.38064 12.273 5.45402 12.4418 5.53955 12.633C5.74849 13.1056 6.02998 13.7358 6.32055 14.3997C6.91303 15.7613 7.5107 17.1452 7.64271 17.5503C7.80611 18.0454 7.97883 18.3718 8.16747 18.6081C8.26492 18.7206 8.37771 18.8332 8.5096 18.9007C8.57606 18.9457 8.64626 18.9794 8.71946 19.0019C8.72263 19.0019 8.72589 19.0019 8.72914 19.0019C9.10671 19.1369 9.45094 19.0807 9.66634 19.0132C9.78171 18.9794 9.87506 18.9344 9.94114 18.9007C9.97483 18.8782 10.0033 18.8668 10.0261 18.8443H10.0314L13.3656 16.8639L17.2171 19.677C17.2738 19.722 17.3359 19.7558 17.4015 19.7783C17.8641 19.9695 18.3123 20.0371 18.7336 19.9808C19.1545 19.9246 19.4885 19.7671 19.7372 19.5758C19.9807 19.3845 20.1459 19.1819 20.2486 19.0244C20.3011 18.9457 20.3405 18.8781 20.3684 18.8218C20.3823 18.7993 20.3935 18.7656 20.4022 18.7543L20.4133 18.7318L20.4176 18.7206L20.4193 18.7093H20.4208C20.441 18.6643 20.4566 18.608 20.4672 18.563L23.9831 1.65074C23.9943 1.59448 24 1.54946 24 1.49319C24 0.998092 23.8044 0.525499 23.3445 0.232938C22.9515 -0.00336056 22.5135 -0.014558 22.2369 0.0079467C21.9382 0.0304513 21.6626 0.0979708 21.4775 0.154233C21.3813 0.176737 21.3004 0.210433 21.2423 0.232938C21.2131 0.244191 21.1891 0.255465 21.1712 0.255465L21.1578 0.266728L1.43964 7.63706H1.43704C1.42443 7.64831 1.40838 7.64833 1.38915 7.65958C1.35093 7.67083 1.29984 7.69326 1.24003 7.71577C1.12347 7.77203 0.960069 7.85075 0.792309 7.95202C0.524268 8.13206 -0.0921592 8.61592 0.0116597 9.40358C0.0944794 10.0338 0.547859 10.4277 0.824159 10.6077C0.975874 10.709 1.12005 10.7877 1.22493 10.8327C1.27365 10.8552 1.37475 10.8889 1.41865 10.9114H1.42973L5.16793 12.1155ZM21.8479 1.81956H21.8451C21.8353 1.81956 21.8254 1.83082 21.8154 1.83082L2.07329 9.21225C2.06303 9.2235 2.05265 9.2235 2.04215 9.2235L2.03118 9.23483C2.01855 9.23483 1.99731 9.24608 1.97054 9.25733C1.95543 9.25733 1.93963 9.26858 1.92358 9.27983C1.94565 9.29108 1.96688 9.30242 1.98564 9.31367C2.00368 9.31367 2.01749 9.32492 2.02504 9.32492L5.73256 10.5176C5.8004 10.5401 5.86375 10.5627 5.92179 10.5964L18.164 3.76618L18.1754 3.75493C18.1843 3.75493 18.196 3.74366 18.2101 3.74366C18.2379 3.72115 18.2762 3.70998 18.3217 3.68748C18.4066 3.64247 18.5427 3.57494 18.6957 3.52993C18.8023 3.50743 19.1168 3.4174 19.4566 3.51867C19.6664 3.58618 19.8836 3.72123 20.0249 3.95753C20.095 4.07005 20.1324 4.18249 20.1506 4.29501C20.1987 4.4638 20.191 4.63263 20.1534 4.76766C20.0722 5.08273 19.8447 5.31906 19.6377 5.51035C19.4603 5.66788 17.1651 7.77205 14.9011 9.85375C13.772 10.9002 12.6544 11.9242 11.8191 12.7006L11.2705 13.1957L18.1979 18.2704C18.3568 18.3155 18.4508 18.3155 18.4941 18.3155C18.546 18.3043 18.5883 18.2817 18.6316 18.2592C18.68 18.2142 18.7223 18.1692 18.7539 18.1242L18.7552 18.1129L22.1654 1.71833C22.1147 1.72958 22.0635 1.74073 22.0143 1.76324C21.9585 1.77449 21.9123 1.79704 21.8818 1.80829C21.8667 1.80829 21.8558 1.81956 21.8499 1.81956H21.8479ZM11.8655 15.7612L10.4835 14.7485L10.1487 16.7852L11.8655 15.7612ZM9.21566 12.7455L10.59 11.4853C11.4254 10.7088 12.5431 9.68483 13.6724 8.64967L14.8197 7.592L7.12751 11.8792L7.16881 11.9804C7.37845 12.453 7.66124 13.0831 7.95323 13.7583C8.17172 14.2533 8.40012 14.7709 8.60811 15.266L8.94197 13.2407C8.9742 13.0382 9.07423 12.8693 9.21566 12.7455Z" fill="black"/>
</svg>
