<svg width="86" height="26" viewBox="0 0 86 26" fill="none" xmlns="http://www.w3.org/2000/svg">
<path fill-rule="evenodd" clip-rule="evenodd" d="M39.7079 17.3101V20.3842H27.3735V17.3101H39.7079ZM39.7079 11.4538V14.5286H27.3735V11.4538H39.7079ZM39.7079 5.59882V8.67164H27.3735V5.59882H39.7079ZM65.1804 5.403V20.5787H62.2227V5.403H65.1804ZM65.1804 0.0867299V3.1609H62.2227V0.0867299H65.1804ZM13.0858 5.20718V8.28135H8.02208V20.3842H5.06368V8.28135H0V5.20718H13.0858ZM78.6989 12.9905L86 20.5794H81.8163L76.6067 15.1642L71.3986 20.5794H67.2142L74.5159 12.9905L67.2142 5.403H71.3986L76.6067 10.8162L81.8163 5.403H86L78.6989 12.9905ZM44.1146 5.20718H48.5515C54.2584 5.20718 58.9024 10.0336 58.9024 15.9658V20.3836H55.9461V15.9658C55.9461 11.7289 52.6279 8.28135 48.5515 8.28135H47.0716V20.3836H44.1146V5.20718ZM18.2568 15.8492L18.2458 15.8269L16.8532 11.5812C15.2481 6.72496 16.9778 1.97717 19.6919 0H23.0294C19.9926 3.47665 18.8815 6.53388 20.0765 10.1501L21.469 14.3958L21.48 14.4188C23.0852 19.2757 21.3528 24.0222 18.642 26H15.3052C18.3407 22.5227 19.4518 19.4654 18.2568 15.8492Z" fill="black" fill-opacity="0.18"/>
</svg>
