<svg width="19" height="20" viewBox="0 0 19 20" fill="none" xmlns="http://www.w3.org/2000/svg">
<path d="M5.4496 4.1499C5.27225 4.1213 5.09205 4.15954 4.93759 4.25488H4.92424C4.56669 4.46465 4.24441 4.73158 3.96981 5.03668C3.74098 5.30366 3.61703 5.57059 3.58461 5.82803C3.56554 5.98058 3.57889 6.13323 3.6237 6.27625L3.64086 6.28568C3.89735 7.04846 4.23393 7.77313 4.64392 8.45967C5.1731 9.42267 5.82336 10.3094 6.58043 11.1008L6.60235 11.1389L6.63859 11.158L6.66052 11.1866L6.68721 11.2152C7.48527 11.9684 8.37678 12.6263 9.33978 13.1603C10.441 13.7515 11.1094 14.0374 11.5109 14.1518V14.1614C11.6281 14.1995 11.7349 14.2187 11.8426 14.2187C12.1849 14.1901 12.5082 14.047 12.7618 13.8182C13.0717 13.5417 13.3329 13.2175 13.5379 12.8647V12.8552C13.7305 12.4928 13.6648 12.1496 13.3882 11.9208C12.8324 11.4345 12.2326 11.0054 11.5948 10.6336C11.1685 10.4048 10.7347 10.5383 10.5593 10.7766L10.1845 11.2533C9.99195 11.4822 9.64303 11.4536 9.64303 11.4536H9.63253C7.02951 10.7957 6.33443 8.15457 6.33443 8.15457C6.33443 8.15457 6.30201 7.80172 6.54324 7.61102L7.01235 7.23915C7.23736 7.05799 7.39374 6.61942 7.15251 6.19035C6.78447 5.55153 6.35445 4.95083 5.86818 4.39782C5.76235 4.27387 5.6136 4.17851 5.4477 4.1499H5.4496Z" fill="black"/>
<path d="M9.84784 3.00577C9.58468 3.00577 9.37109 3.21553 9.37109 3.48251C9.37109 3.74948 9.58468 3.95924 9.84784 3.95924C11.054 3.95924 12.0552 4.35013 12.8465 5.10337C13.2546 5.5229 13.5712 6.00918 13.78 6.54313C13.9888 7.0866 14.0842 7.65871 14.0593 8.23079C14.0479 8.48824 14.2529 8.71708 14.5151 8.72666C14.7783 8.73616 15.0004 8.53591 15.0118 8.26897C15.0424 7.5634 14.9251 6.85778 14.6686 6.19988C14.4122 5.54199 14.0213 4.94133 13.5207 4.43598L13.5111 4.42644C12.529 3.4825 11.2838 3.00577 9.84784 3.00577Z" fill="black"/>
<path d="M9.81659 4.56949C9.55343 4.56949 9.33984 4.78879 9.33984 5.04622C9.33984 5.3132 9.55343 5.52296 9.81659 5.52296H9.83276C10.7023 5.58971 11.3354 5.87575 11.7788 6.35248C12.2336 6.84829 12.4692 7.44893 12.451 8.21171C12.4453 8.46916 12.6541 8.68849 12.9173 8.69799C13.1804 8.69799 13.3988 8.48824 13.4045 8.2308C13.4273 7.23918 13.1098 6.39057 12.4778 5.70406H12.4768C11.8323 5.00803 10.9474 4.64577 9.88043 4.57903L9.86426 4.56949H9.81659Z" fill="black"/>
<path d="M9.79818 6.17125C9.53593 6.15218 9.31093 6.36203 9.29759 6.61947C9.28326 6.88644 9.48543 7.10565 9.74859 7.12472C10.1471 7.14379 10.4017 7.25827 10.5619 7.42036C10.723 7.58245 10.8432 7.84942 10.8651 8.24987C10.8784 8.51683 11.1035 8.71708 11.3666 8.7075C11.6288 8.68842 11.831 8.46917 11.8167 8.20216C11.7862 7.63007 11.6069 7.12482 11.2398 6.75297C10.8708 6.38112 10.3683 6.19985 9.79818 6.17125Z" fill="black"/>
<path fill-rule="evenodd" clip-rule="evenodd" d="M4.59288 0.507725C7.62684 -0.169242 10.7733 -0.169242 13.8073 0.507725L14.1305 0.583962C15.9393 0.984417 17.3666 2.3765 17.8223 4.16903C18.5918 7.20108 18.5918 10.3858 17.8223 13.4178C17.3666 15.2199 15.9393 16.6024 14.1305 17.0029L13.8073 17.0791C11.9013 17.5082 9.95142 17.6607 8.01204 17.5558L5.48248 19.8156C5.28797 19.9968 5.01528 20.0444 4.76928 19.9587C4.52328 19.8728 4.34308 19.663 4.30017 19.4055L3.88159 16.9074C2.25877 16.4021 1.00019 15.0864 0.577806 13.4178C-0.192602 10.3858 -0.192602 7.20108 0.577806 4.16903C1.03357 2.3765 2.46091 0.984417 4.26965 0.583962L4.59288 0.507725ZM13.4955 1.90931C10.6665 1.27047 7.73363 1.27047 4.90467 1.90931L4.58144 1.97612C3.29902 2.26216 2.28738 3.25369 1.96415 4.52182C1.25191 7.32503 1.25191 10.2618 1.96415 13.065C2.28738 14.3427 3.29902 15.3247 4.58144 15.6108L4.6663 15.6298C4.95043 15.6966 5.16783 15.9254 5.21646 16.2114L5.49677 17.8896L7.28168 16.2878C7.42566 16.1638 7.61636 16.097 7.80896 16.1066C9.71017 16.2401 11.6257 16.0971 13.4955 15.6871L13.8187 15.6108C15.1002 15.3247 16.1128 14.3427 16.436 13.065C17.1473 10.2618 17.1473 7.32503 16.436 4.52182C16.1128 3.25369 15.1002 2.26216 13.8187 1.97612L13.4955 1.90931Z" fill="black"/>
</svg>
