<svg width="36" height="12" viewBox="0 0 36 12" fill="none" xmlns="http://www.w3.org/2000/svg">
<path d="M15.2062 11.0772H12.3635L14.1415 0.197021H16.984L15.2062 11.0772Z" fill="#15195A"/>
<path d="M25.5108 0.463212C24.9501 0.243067 24.0608 0 22.9612 0C20.154 0 18.1772 1.48148 18.165 3.59955C18.1417 5.16226 19.5804 6.03022 20.6564 6.55128C21.7561 7.08372 22.13 7.43124 22.13 7.90584C22.1188 8.63473 21.2413 8.97072 20.4229 8.97072C19.288 8.97072 18.6799 8.7975 17.7557 8.39197L17.3814 8.21813L16.9836 10.6605C17.6503 10.9611 18.8787 11.2279 20.154 11.2396C23.1367 11.2396 25.0785 9.781 25.1015 7.52385C25.1128 6.28529 24.3532 5.33625 22.7154 4.56074C21.7212 4.06292 21.1123 3.72724 21.1123 3.21787C21.1239 2.75481 21.6273 2.28052 22.7496 2.28052C23.6737 2.25729 24.3527 2.47713 24.8671 2.69712L25.1242 2.81266L25.5108 0.463212Z" fill="#15195A"/>
<path d="M32.7983 0.197021L35.0913 11.0769H32.4595C32.4568 11.064 32.2008 9.82506 32.1196 9.44507H28.4702C28.3649 9.73372 27.8766 11.0686 27.8735 11.0769H24.8911L29.1138 1.09937C29.4063 0.393632 29.9213 0.197043 30.5991 0.197021H32.7983ZM30.4243 4.17847C30.4243 4.17847 29.5238 6.59692 29.2896 7.22241H31.6519C31.5349 6.67796 30.9966 4.07397 30.9966 4.07397L30.7983 3.13647C30.658 3.54154 30.4125 4.2017 30.4243 4.17847Z" fill="#15195A"/>
<path d="M4.62012 0.197021C5.24003 0.219944 5.74354 0.417165 5.90723 1.11206L6.90039 6.10913L6.90137 6.11108L7.20508 7.61597L9.98926 0.197021H12.9951L8.52734 11.0652H5.52148L2.98633 1.61108C2.1124 1.10557 1.11503 0.698936 0 0.416748L0.046875 0.197021H4.62012Z" fill="#15195A"/>
</svg>
