<svg width="24" height="32" viewBox="0 0 24 32" fill="none" xmlns="http://www.w3.org/2000/svg">
<path fill-rule="evenodd" clip-rule="evenodd" d="M0 15.1111V11.8827C0 5.32444 5.37662 0 11.9991 0C18.6216 0 23.9982 5.32444 23.9982 11.8827V15.1111H20.4078V11.8827C20.4078 7.28622 16.6397 3.55556 11.9991 3.55556C7.35762 3.55556 3.5904 7.28711 3.5904 11.8827V15.1111H0ZM23.9991 16V20.1173C23.9991 26.6756 18.6225 32 12 32C5.37752 32 0.000897587 26.6756 0.000897587 20.1173V16H24H23.9991ZM10.6536 24.6302V27.7778C10.6536 28.1458 10.9552 28.4444 11.3268 28.4444H12.6732C13.0448 28.4444 13.3464 28.1458 13.3464 27.7778V24.6302C14.6614 24.1022 15.5904 22.8249 15.5904 21.3333C15.5904 19.3707 13.9819 17.7778 12 17.7778C10.0181 17.7778 8.40961 19.3707 8.40961 21.3333C8.40961 22.824 9.33862 24.1022 10.6536 24.6302Z" fill="url(#paint0_linear_42_1727)"/>
<defs>
<linearGradient id="paint0_linear_42_1727" x1="11.5503" y1="0.888889" x2="11.5503" y2="26.6667" gradientUnits="userSpaceOnUse">
<stop stop-color="#49A2FF"/>
<stop offset="1" stop-color="#7BF6F9"/>
</linearGradient>
</defs>
</svg>
