<svg width="21" height="20" viewBox="0 0 21 20" fill="none" xmlns="http://www.w3.org/2000/svg">
<path d="M6.8588 5.21337C7.04333 5.21337 7.24782 5.22339 7.44244 5.65699C7.5715 5.94941 7.78891 6.47375 7.96598 6.90734C8.10382 7.2401 8.21716 7.52248 8.24549 7.57289C8.31033 7.70398 8.35026 7.85518 8.26546 8.02661C8.25548 8.04677 8.2461 8.067 8.23692 8.08717C8.16896 8.22834 8.12055 8.32917 8.0061 8.46027C7.95912 8.51069 7.91011 8.57119 7.8613 8.63169C7.77539 8.73252 7.69019 8.84336 7.61699 8.91394C7.48731 9.04502 7.35259 9.17619 7.50224 9.43836C7.65198 9.70052 8.17572 10.5475 8.94893 11.2333C9.78009 11.9694 10.5029 12.2819 10.8683 12.4432C10.9393 12.4734 10.9967 12.4937 11.0388 12.5139C11.2983 12.6449 11.4529 12.6248 11.6025 12.4534C11.7523 12.2819 12.251 11.697 12.4257 11.4349C12.5953 11.1828 12.7698 11.2231 13.0093 11.3139C13.2487 11.3945 14.5254 12.0299 14.7846 12.1509C14.836 12.1811 14.8844 12.2013 14.9288 12.2214C15.1093 12.3122 15.2313 12.3727 15.2838 12.4534C15.3483 12.5643 15.3483 13.0784 15.1345 13.6835C14.9147 14.2986 13.8573 14.8734 13.3783 14.9239C13.333 14.9239 13.2879 14.9339 13.2414 14.9339C12.8026 14.9844 12.2456 15.0549 10.2607 14.2785C7.81502 13.3105 6.20064 10.9307 5.87424 10.4467C5.84852 10.4064 5.83078 10.3762 5.8213 10.3661L5.81575 10.3559C5.66722 10.1644 4.75879 8.94427 4.75879 7.69389C4.75879 6.49394 5.34989 5.86879 5.61952 5.57636C5.63656 5.56628 5.6524 5.54606 5.66671 5.52589C5.9061 5.2738 6.18541 5.20328 6.36006 5.20328C6.5346 5.20328 6.70926 5.20329 6.8588 5.21337Z" fill="black"/>
<path fill-rule="evenodd" clip-rule="evenodd" d="M0.100935 19.4916C0.0184512 19.7941 0.291215 20.0663 0.591705 19.9856L5.23752 18.7756C6.70408 19.5722 8.35516 19.9957 10.0362 19.9957H10.0412C15.573 19.9957 20.0824 15.5087 20.0824 10.003C20.0824 7.33082 19.0397 4.81998 17.144 2.92426C15.2493 1.03863 12.7298 0 10.0412 0C4.50939 0 5.92515e-07 4.48724 5.92515e-07 9.99291C-0.000604423 11.7474 0.462135 13.4717 1.34183 14.9842L0.100935 19.4916ZM2.80001 15.3876C2.90771 15.0044 2.85396 14.5808 2.65067 14.2279C1.90439 12.9372 1.51203 11.4852 1.51254 9.99291C1.51254 5.32417 5.33755 1.51254 10.0412 1.51254C12.33 1.51254 14.4658 2.39986 16.0772 4.00315C17.6876 5.60644 18.5698 7.73416 18.5698 10.003C18.5698 14.6717 14.7452 18.4831 10.0412 18.4831H10.0362C8.60783 18.4831 7.20423 18.1202 5.95799 17.4446C5.62059 17.2631 5.22653 17.2127 4.85535 17.3136L2.06986 18.0396L2.80001 15.3876Z" fill="black"/>
</svg>
