<svg width="34" height="37" viewBox="0 0 34 37" fill="none" xmlns="http://www.w3.org/2000/svg">
<path d="M9.61667 32.5H2.5C1.94772 32.5 1.5 32.0523 1.5 31.5V16.9667C1.5 16.4144 1.94772 15.9667 2.5 15.9667H9.61667C9.69951 15.9667 9.76667 16.0338 9.76667 16.1167V32.35C9.76667 32.4328 9.69951 32.5 9.61667 32.5Z" stroke="black" stroke-width="3" stroke-linecap="round"/>
<path d="M9.7666 15.9667L13.732 10.0186C13.8415 9.85432 13.8999 9.66132 13.8999 9.46389V2.5C13.8999 1.94772 14.3477 1.5 14.8999 1.5H20.1666C21.2712 1.5 22.1666 2.39543 22.1666 3.5V15.9667" stroke="black" stroke-width="3" stroke-linecap="round"/>
<path d="M18.0333 15.9667H30.2654C31.4574 15.9667 32.3848 17.0028 32.2532 18.1875L30.6309 32.7875C30.5184 33.8004 29.6623 34.5667 28.6432 34.5667H18.4475C18.1823 34.5667 17.9279 34.4613 17.7404 34.2738L16.2595 32.7929C16.072 32.6054 15.8176 32.5 15.5524 32.5H9.7666" stroke="black" stroke-width="3" stroke-linecap="round"/>
</svg>
