<svg width="33" height="37" viewBox="0 0 33 37" fill="none" xmlns="http://www.w3.org/2000/svg">
<path d="M1.5 5.5C1.5 3.61438 1.5 2.67157 2.08579 2.08579C2.67157 1.5 3.61438 1.5 5.5 1.5H27.1667C29.0523 1.5 29.9951 1.5 30.5809 2.08579C31.1667 2.67157 31.1667 3.61438 31.1667 5.5V28.875C31.1667 31.7034 31.1667 33.1176 30.288 33.9963C29.4093 34.875 27.9951 34.875 25.1667 34.875H7.49999C4.67157 34.875 3.25736 34.875 2.37868 33.9963C1.5 33.1176 1.5 31.7034 1.5 28.875V5.5Z" stroke="black" stroke-width="3"/>
<path d="M21.8958 29.3125L21.8958 34.875M10.7708 29.3125L10.7708 34.875" stroke="black" stroke-width="3" stroke-linecap="round"/>
<path d="M10.7708 10.7709L21.8958 10.7709" stroke="black" stroke-width="3" stroke-linecap="round"/>
<path d="M10.7708 18.1875L21.8958 18.1875" stroke="black" stroke-width="3" stroke-linecap="round"/>
</svg>
