<svg width="33" height="36" viewBox="0 0 33 36" fill="none" xmlns="http://www.w3.org/2000/svg">
<path d="M16.3499 1.5V0H16.3498L16.3499 1.5ZM27.8997 13.0498H29.3997V13.0498L27.8997 13.0498ZM16.7463 27.709L17.4169 29.0508L17.4173 29.0506L16.7463 27.709ZM15.9534 27.709L15.2824 29.0506L15.2824 29.0506L15.9534 27.709ZM4.80005 13.0498L3.30005 13.0498V13.0498H4.80005ZM16.3499 8.09961V6.59961H16.3498L16.3499 8.09961ZM11.3997 13.0498L9.89966 13.0497V13.0498H11.3997ZM16.3499 18L16.3498 19.5H16.3499V18ZM21.3 13.0498H22.8V13.0497L21.3 13.0498ZM16.3499 1.5V3C21.9002 3 26.3996 7.49941 26.3997 13.0498L27.8997 13.0498L29.3997 13.0498C29.3995 5.8426 23.5571 0 16.3499 0V1.5ZM27.8997 13.0498H26.3997C26.3997 16.7861 24.4216 19.8338 22.0387 22.149C19.6604 24.4596 17.0248 25.8926 16.0754 26.3674L16.7463 27.709L17.4173 29.0506C18.4971 28.5105 21.4381 26.9153 24.1292 24.3007C26.8156 21.6906 29.3997 17.9161 29.3997 13.0498H27.8997ZM16.7463 27.709L16.0758 26.3672C16.15 26.3301 16.2443 26.3045 16.3497 26.3045C16.4552 26.3045 16.5497 26.3301 16.6243 26.3674L15.9534 27.709L15.2824 29.0506C15.9598 29.3893 16.7404 29.3888 17.4169 29.0508L16.7463 27.709ZM15.9534 27.709L16.6243 26.3674C15.6749 25.8926 13.0392 24.4595 10.661 22.1489C8.27809 19.8338 6.30005 16.7861 6.30005 13.0498H4.80005H3.30005C3.30005 17.9161 5.88404 21.6905 8.57048 24.3006C11.2616 26.9152 14.2026 28.5105 15.2824 29.0506L15.9534 27.709ZM4.80005 13.0498L6.30005 13.0498C6.30014 7.4995 10.7996 3.00009 16.3499 3L16.3499 1.5L16.3498 0C9.14269 0.000119209 3.30017 5.84264 3.30005 13.0498L4.80005 13.0498ZM16.3499 8.09961L16.3498 6.59961C12.7878 6.59976 9.8998 9.48771 9.89966 13.0497L11.3997 13.0498L12.8997 13.0499C12.8997 11.1446 14.4446 9.59969 16.3499 9.59961L16.3499 8.09961ZM11.3997 13.0498H9.89966C9.89966 16.612 12.7878 19.4999 16.3498 19.5L16.3499 18L16.3499 16.5C14.4445 16.4999 12.8997 14.9551 12.8997 13.0498H11.3997ZM16.3499 18V19.5C19.9121 19.5 22.8 16.612 22.8 13.0498H21.3H19.8C19.8 14.9552 18.2552 16.5 16.3499 16.5V18ZM21.3 13.0498L22.8 13.0497C22.7999 9.4877 19.9121 6.59961 16.3499 6.59961V8.09961V9.59961C18.2551 9.59961 19.8 11.1445 19.8 13.0499L21.3 13.0498Z" fill="black"/>
<path d="M29.2105 27.075C30.5138 27.8275 31.2 28.6811 31.2 29.55C31.2 30.4189 30.5138 31.2725 29.2105 32.025C27.9071 32.7775 26.0325 33.4023 23.775 33.8368C21.5175 34.2713 18.9567 34.5 16.35 34.5C13.7433 34.5 11.1825 34.2713 8.925 33.8368C6.66752 33.4023 4.79288 32.7775 3.48952 32.025C2.18616 31.2725 1.5 30.4189 1.5 29.55C1.5 28.6811 2.18616 27.8275 3.48952 27.075" stroke="black" stroke-width="3" stroke-linecap="round"/>
</svg>
