<svg width="80" height="76" viewBox="0 0 80 76" fill="none" xmlns="http://www.w3.org/2000/svg">
<path d="M75.7533 47.5924H74.2663C74.5806 45.9529 74.7353 44.8981 74.7353 44.4282C74.7353 43.7834 74.5243 43.3036 74.1021 42.9937C73.6798 42.6788 72.887 42.5238 71.7142 42.5238L69.955 42.5538L69.3779 42.5238H63.8798C63.7672 42.9737 63.4764 44.1184 62.9979 45.9528C62.008 49.7418 61.2574 52.8459 60.746 55.2652H66.1034C67.4076 55.2652 68.2473 55.1302 68.632 54.8553C69.0167 54.5804 69.3405 53.8906 69.5938 52.7759H71.0808C70.5132 55.2352 70.016 57.8045 69.5938 60.4787H68.0831C68.2098 59.364 68.2755 58.7143 68.2755 58.5143C68.2755 58.0494 68.055 57.6945 67.6187 57.4646C67.3607 57.3246 66.6617 57.2397 65.5265 57.1997H60.2769C59.7468 59.9139 59.0479 62.8431 58.1894 65.9872C57.3262 69.1263 56.5849 71.5606 55.961 73.2801C57.4294 73.53 58.7381 73.66 59.8922 73.66C60.6428 73.66 61.384 73.59 62.1206 73.4551L61.6514 75.1246C61.1213 75.1996 60.6241 75.2396 60.1691 75.2396C59.7656 75.2396 58.4989 75.1696 56.3738 75.0346C55.1118 74.9396 54.0376 74.8897 53.1557 74.8897C51.3824 74.8897 49.4824 75.0646 47.4699 75.4145L47.7981 73.8049C49.4307 73.4351 50.5051 73.0452 51.0258 72.6353C51.5512 72.2254 51.95 71.7256 52.2221 71.1408C52.7897 69.9511 53.8546 66.2571 55.4121 60.0689L59.6154 42.5238C57.1619 42.6038 55.0134 43.1886 53.1697 44.2833C51.3307 45.378 49.8623 46.8426 48.774 48.6921C47.6856 50.5366 47.1367 52.406 47.1367 54.3005C47.1367 55.0603 47.2306 55.8401 47.4136 56.6398C47.5027 57.0897 47.7606 57.7345 48.1828 58.5743C48.7129 59.609 48.9804 60.3338 48.9804 60.7437C48.9804 61.1536 48.8256 61.5085 48.5113 61.8134C48.2016 62.1133 47.7982 62.2632 47.3009 62.2632C46.5691 62.2632 45.9733 61.8534 45.5182 61.0336C44.8943 59.9439 44.5801 58.3893 44.5801 56.3799C44.5801 52.456 46.0202 48.842 48.8959 45.543C51.7764 42.2589 55.5669 40.6193 60.2769 40.6193H70.8322C72.005 40.6193 73.2952 40.5444 74.7072 40.3844C75.1294 40.3494 76.0348 40.1445 77.4281 39.7696C76.4945 43.8534 75.9363 46.4577 75.7533 47.5924Z" fill="black"/>
<path fill-rule="evenodd" clip-rule="evenodd" d="M63.2896 25.5119L63.5555 24.7985C64.5619 22.8208 76.5724 28.8763 59.9941 37.2722C73.3161 29.5355 66.9448 25.8713 63.2896 25.5119Z" fill="black"/>
<path d="M64.3083 27.7226C65.1592 27.7226 65.849 26.9875 65.849 26.0806C65.849 25.1737 65.1592 24.4385 64.3083 24.4385C63.4574 24.4385 62.7676 25.1737 62.7676 26.0806C62.7676 26.9875 63.4574 27.7226 64.3083 27.7226Z" fill="black"/>
<path fill-rule="evenodd" clip-rule="evenodd" d="M70.9253 22.2127L71.6982 21.3538C74.241 19.1461 88.8971 35.6408 59.8033 37.0748C83.7062 34.4926 76.1706 25.0896 70.9253 22.2127Z" fill="black"/>
<path d="M71.3593 25.9778C72.6206 26.5252 74.0305 25.9104 74.5085 24.6046C74.9865 23.2987 74.3516 21.7964 73.0903 21.249C71.8291 20.7016 70.4191 21.3165 69.9411 22.6223C69.4631 23.9281 70.0981 25.4304 71.3593 25.9778Z" fill="black"/>
<path d="M46.4602 44.7596C44.7529 44.7596 43.0455 44.7596 41.3382 44.4564C28.8179 42.9405 17.1512 38.3925 7.47642 29.9031C3.20812 26.2647 0.647145 21.4136 0.078039 15.3497C-0.77562 6.8602 5.48455 0.49309 13.452 1.40268C18.8585 2.00907 23.1268 4.43464 27.1106 8.37618C35.9317 18.0784 43.3244 29.2906 48.1618 41.7216C48.1618 42.0248 48.1675 41.4245 48.1675 41.7277C46.7447 39.9085 45.6065 37.7861 44.1838 35.967C39.3463 28.9935 34.2244 22.02 27.9642 16.2593C25.1187 13.5305 21.7041 11.1049 17.7203 10.1953C14.5902 9.58895 12.0293 10.4985 10.0374 12.9241C8.04552 15.3497 8.33008 18.0784 9.18374 20.8072C10.6065 24.4455 12.8829 27.1743 15.7285 29.5999C21.135 34.451 27.6797 37.7861 34.5089 40.2117C38.2081 42.0309 42.1919 43.2437 46.4602 44.7596Z" fill="black"/>
<path fill-rule="evenodd" clip-rule="evenodd" d="M51.969 40.0764C51.9513 40.0991 51.9337 40.1196 51.916 40.1412C51.9311 40.1196 51.946 40.0991 51.9609 40.0764C51.9635 40.0764 51.9663 40.0764 51.969 40.0764Z" fill="black"/>
<path fill-rule="evenodd" clip-rule="evenodd" d="M47.9145 36.5573C47.9152 36.5605 47.916 36.5647 47.9168 36.569C47.9152 36.5647 47.9137 36.5615 47.9121 36.5583C47.913 36.5573 47.9137 36.5573 47.9145 36.5573Z" fill="black"/>
<path fill-rule="evenodd" clip-rule="evenodd" d="M47.9128 36.5583C47.6665 35.9565 47.4555 35.3557 47.3144 34.7538C45.3226 29.2969 43.8997 23.5359 43.0461 17.4717C42.477 13.2272 43.3307 8.67962 45.3226 5.04133C49.0217 -1.62904 56.7047 -1.62905 60.6884 4.73822C61.8266 6.85993 62.6803 8.98271 62.6803 11.7106C63.2461 21.3568 57.903 32.7934 51.9689 40.0765H51.9608C52.7634 38.9085 53.3216 37.7296 54.1437 36.2704C56.4201 31.7217 58.6965 26.871 59.2656 21.7162C59.8348 18.0779 59.2656 14.4396 57.8429 11.1044C56.9892 9.28582 55.5665 7.76923 53.29 7.76923C51.0136 7.76923 49.3063 8.67961 48.1681 10.8013C47.3144 12.621 46.7453 14.7427 46.4607 16.5624C45.9122 22.1145 46.8289 30.7799 47.915 36.5573C47.9143 36.5573 47.9136 36.5573 47.9128 36.5583Z" fill="black"/>
<path fill-rule="evenodd" clip-rule="evenodd" d="M41.3379 50.8484C41.3384 50.8463 41.3391 50.8441 41.3396 50.843C41.3388 50.9056 41.338 50.9586 41.3379 50.8484Z" fill="black"/>
<path fill-rule="evenodd" clip-rule="evenodd" d="M41.3398 50.8427C41.3409 50.7661 41.342 50.6754 41.342 50.8363C41.3412 50.8384 41.3406 50.8406 41.3398 50.8427Z" fill="black"/>
<path fill-rule="evenodd" clip-rule="evenodd" d="M42.5664 45.9966C42.5708 45.9966 42.5753 45.9966 42.5799 45.9966C42.5757 45.9977 42.5716 45.9977 42.5675 45.9988C42.5671 45.9977 42.5667 45.9966 42.5664 45.9966Z" fill="black"/>
<path fill-rule="evenodd" clip-rule="evenodd" d="M41.338 50.8484C39.6306 56.3009 37.067 61.4374 33.3705 65.3766C31.6632 67.1963 29.6713 68.7118 27.1103 69.318C21.7038 70.5304 17.4355 65.9828 18.5737 60.2229C19.1428 57.1908 20.5655 54.7649 22.5575 52.6421C27.9482 47.5035 35.4711 45.7065 42.5668 45.9966C42.5671 45.9966 42.5675 45.9977 42.5679 45.9988C38.0951 46.6299 34.1637 48.4322 29.9558 50.8235C28.8176 51.4297 27.6794 52.339 26.5412 53.2494C25.6875 54.1587 24.8339 55.068 24.2648 55.9773C22.842 58.4032 22.842 61.1321 24.5494 62.9508C26.2566 64.7704 28.5331 65.0735 31.0941 63.558C34.5086 61.7384 36.5006 58.4032 38.777 55.3711C39.6306 53.8556 40.4843 52.6421 41.338 50.8235C41.338 50.8321 41.338 50.8408 41.338 50.8484Z" fill="black"/>
<path fill-rule="evenodd" clip-rule="evenodd" d="M50.1569 38.0128C50.1569 38.0128 48.1258 30.6724 48.6788 27.8637C49.0562 25.9466 50.8506 24.7433 52.6837 25.178C54.5167 25.6126 55.699 27.5217 55.3216 29.4388C54.7686 32.2476 50.1569 38.0128 50.1569 38.0128Z" fill="black"/>
<path fill-rule="evenodd" clip-rule="evenodd" d="M44.7733 41.7426C44.7733 41.7426 35.8125 39.2466 33.0927 36.9496C31.4515 35.5636 31.2905 33.1551 32.7338 31.5747C34.1771 29.9943 36.6818 29.8364 38.323 31.2225C41.0427 33.5194 44.7733 41.7426 44.7733 41.7426Z" fill="black"/>
<path fill-rule="evenodd" clip-rule="evenodd" d="M42.8438 46.9211C42.8438 46.9211 39.8709 52.9983 37.9817 54.4914C36.6982 55.5057 35.0134 55.167 34.2211 53.7357C33.4289 52.3043 33.8273 50.3187 35.1108 49.3043C37 47.8113 42.8438 46.9211 42.8438 46.9211Z" fill="black"/>
</svg>
