<svg width="178" height="103" viewBox="0 0 178 103" fill="none" xmlns="http://www.w3.org/2000/svg">
<path d="M53.4396 90.8861H53.0172C53.1065 90.4203 53.1504 90.1207 53.1504 89.9872C53.1504 89.8041 53.0905 89.6678 52.9705 89.5797C52.8506 89.4903 52.6254 89.4462 52.2922 89.4462L51.7924 89.4547L51.6285 89.4462H50.0666C50.0346 89.574 49.952 89.8992 49.8161 90.4203C49.5349 91.4967 49.3216 92.3785 49.1764 93.0658H50.6983C51.0688 93.0658 51.3073 93.0274 51.4166 92.9493C51.5259 92.8712 51.6179 92.6753 51.6898 92.3586H52.1123C51.951 93.0573 51.8098 93.7871 51.6898 94.5468H51.2607C51.2967 94.2302 51.3153 94.0456 51.3153 93.9888C51.3153 93.8567 51.2527 93.7559 51.1288 93.6906C51.0555 93.6508 50.8569 93.6267 50.5344 93.6153H49.0431C48.8925 94.3864 48.694 95.2185 48.4501 96.1117C48.2049 97.0034 47.9943 97.6949 47.8171 98.1834C48.2342 98.2544 48.606 98.2913 48.9338 98.2913C49.1471 98.2913 49.3576 98.2715 49.5669 98.2331L49.4336 98.7074C49.283 98.7287 49.1417 98.7401 49.0125 98.7401C48.8979 98.7401 48.538 98.7202 47.9343 98.6818C47.5758 98.6549 47.2707 98.6407 47.0201 98.6407C46.5164 98.6407 45.9766 98.6904 45.4049 98.7898L45.4982 98.3325C45.9619 98.2274 46.2672 98.1167 46.4151 98.0002C46.5643 97.8838 46.6776 97.7418 46.7549 97.5757C46.9162 97.2377 47.2187 96.1883 47.6611 94.4304L48.8552 89.4462C48.1582 89.4689 47.5479 89.6351 47.0241 89.9461C46.5017 90.257 46.0846 90.6731 45.7754 91.1985C45.4662 91.7225 45.3103 92.2535 45.3103 92.7917C45.3103 93.0076 45.337 93.2291 45.3889 93.4563C45.4142 93.5841 45.4875 93.7673 45.6074 94.0058C45.758 94.2997 45.834 94.5057 45.834 94.6221C45.834 94.7385 45.79 94.8394 45.7007 94.926C45.6128 95.0112 45.4982 95.0538 45.3569 95.0538C45.149 95.0538 44.9798 94.9373 44.8505 94.7045C44.6732 94.3949 44.584 93.9533 44.584 93.3824C44.584 92.2677 44.9931 91.2411 45.81 90.3039C46.6283 89.371 47.7051 88.9052 49.0431 88.9052H52.0416C52.3748 88.9052 52.7413 88.8839 53.1425 88.8385C53.2624 88.8285 53.5196 88.7703 53.9154 88.6638C53.6502 89.8239 53.4916 90.5638 53.4396 90.8861Z" fill="black"/>
<path d="M57.3125 96.6356L57.5777 96.9353C57.1712 97.4223 56.6914 97.8682 56.137 98.27C55.5826 98.6719 55.1256 98.8735 54.7671 98.8735C54.6045 98.8735 54.4725 98.8082 54.3686 98.6776C54.2646 98.5469 54.2126 98.368 54.2126 98.1408C54.2126 97.6978 54.3739 96.7762 54.6964 95.379L55.54 91.7267C55.8465 90.4061 56.1037 89.5215 56.313 89.0728C56.6355 88.3898 57.0926 87.8601 57.683 87.4824C58.2733 87.1061 58.897 86.9172 59.5527 86.9172C59.7766 86.9172 59.9525 86.974 60.0805 87.0876C60.2084 87.2012 60.271 87.339 60.271 87.4994C60.271 87.6769 60.2097 87.8232 60.0844 87.9368C59.9592 88.0504 59.7766 88.1072 59.538 88.1072C59.3808 88.1072 59.1596 88.0788 58.8744 88.0234C58.6238 87.9794 58.392 87.9567 58.1787 87.9567C57.9655 87.9567 57.8042 88.0049 57.6949 88.0986C57.5444 88.2321 57.4071 88.5119 57.2845 88.9393C57.1619 89.3667 56.9633 90.2088 56.6875 91.4683L55.9145 94.9544C55.5293 96.7024 55.3361 97.614 55.3361 97.6921C55.3361 97.8696 55.3961 97.9576 55.516 97.9576C55.6307 97.9576 55.7972 97.8866 56.0158 97.7418C56.4476 97.4535 56.8794 97.0844 57.3125 96.6356Z" fill="black"/>
<path d="M62.4098 91.6429C62.9203 91.6429 63.3454 91.8588 63.6826 92.2919C64.0211 92.725 64.1903 93.3271 64.1903 94.0981C64.1903 95.3292 63.7852 96.434 62.9723 97.4138C62.1607 98.3922 61.3011 98.8821 60.3962 98.8821C59.8391 98.8821 59.39 98.6875 59.0489 98.2999C58.7077 97.9108 58.5371 97.3811 58.5371 96.7095C58.5371 95.5451 58.8503 94.4687 59.474 93.4818C60.2603 92.2564 61.2384 91.6429 62.4098 91.6429ZM61.7462 92.2677C61.3037 92.2677 60.876 92.6043 60.4615 93.2774C60.0484 93.9518 59.8418 94.8819 59.8418 96.0691C59.8418 96.7904 59.9684 97.3584 60.2243 97.7745C60.4108 98.0798 60.6614 98.2331 60.9733 98.2331C61.4104 98.2331 61.8088 97.9449 62.1686 97.3669C62.6257 96.6186 62.855 95.6899 62.855 94.5795C62.855 93.7488 62.7497 93.1552 62.5391 92.8002C62.3286 92.4452 62.0647 92.2677 61.7462 92.2677Z" fill="black"/>
<path d="M68.7976 91.8759C69.0374 91.6984 69.2187 91.6103 69.344 91.6103C69.4426 91.6103 69.5239 91.6444 69.5865 91.714C69.6492 91.7836 69.6798 91.8674 69.6798 91.9682C69.6798 92.184 69.5266 92.3331 69.2187 92.4169L68.6177 93.6736C68.4671 94.0229 68.3538 94.3722 68.2778 94.7215C68.2032 95.0708 68.1646 95.4287 68.1646 95.7951C68.1646 96.2551 68.2685 96.9935 68.4777 98.0088C69.2787 97.4422 70.0263 96.6854 70.718 95.7368C70.7126 95.4983 70.71 95.3236 70.71 95.2129C70.71 93.9917 70.8792 93.0303 71.2177 92.326C71.4416 91.8588 71.6895 91.626 71.96 91.626C72.1213 91.626 72.2559 91.6998 72.3625 91.8475C72.4691 91.9937 72.5224 92.211 72.5224 92.5007C72.5224 92.7335 72.4811 93.0019 72.3972 93.3072C72.2572 93.8071 72.0906 94.2643 71.8974 94.6804C71.8974 96.0776 71.996 97.1866 72.1946 98.0088C72.8183 97.553 73.426 96.9822 74.0137 96.2935C74.4455 95.7894 74.7733 95.264 74.9972 94.7173C75.2211 94.1706 75.3331 93.7233 75.3331 93.374C75.3331 93.2022 75.2758 92.9806 75.1611 92.708C75.0319 92.3913 74.9666 92.1613 74.9666 92.0179C74.9666 91.873 75.0159 91.7495 75.1145 91.6473C75.2131 91.545 75.333 91.4939 75.4743 91.4939C75.6462 91.4939 75.7822 91.5805 75.8835 91.7552C75.9847 91.9298 76.0367 92.2422 76.0367 92.691C76.0367 93.834 75.5703 95.0325 74.6387 96.2864C73.7059 97.5388 72.5691 98.5072 71.2257 99.1902C71.0592 98.5853 70.9059 97.6865 70.7646 96.4937C70.057 97.2477 69.6172 97.7007 69.4453 97.8498C69.1014 98.1551 68.7696 98.4149 68.4498 98.6279C68.1299 98.8409 67.7874 99.0284 67.4236 99.1902C67.3863 98.8736 67.3036 98.3638 67.173 97.6581C66.9905 96.6655 66.8999 95.9555 66.8999 95.5281C66.8999 94.9516 67.0318 94.385 67.2943 93.8269C67.5569 93.2703 67.9513 92.7804 68.4777 92.3587C67.5355 92.3871 66.8639 92.5035 66.4627 92.708C66.1922 92.8471 66.0563 93.0133 66.0563 93.2078C66.0563 93.2788 66.0882 93.3953 66.1509 93.5571C66.2082 93.7062 66.2362 93.817 66.2362 93.8894C66.2362 93.9888 66.2029 94.0754 66.1349 94.1479C66.0669 94.2203 65.9816 94.2558 65.8763 94.2558C65.7417 94.2558 65.6272 94.1919 65.5339 94.0641C65.4392 93.9363 65.3926 93.7559 65.3926 93.5231C65.3926 93.08 65.5805 92.7193 65.955 92.4424C66.496 92.0363 67.4436 91.8489 68.7976 91.8759Z" fill="black"/>
<path d="M81.1808 96.5519L81.4393 96.9182C80.1639 98.2104 79.0698 98.8565 78.1596 98.8565C77.7891 98.8565 77.5079 98.723 77.312 98.4575C77.1174 98.1905 77.0188 97.7645 77.0188 97.1766C77.0188 95.9895 77.3573 94.8081 78.0343 93.6309C78.7939 92.2947 79.7028 91.6259 80.7596 91.6259C81.1288 91.6259 81.4113 91.7253 81.6072 91.9213C81.8018 92.1186 81.8991 92.3884 81.8991 92.7335C81.8991 93.0942 81.7832 93.4492 81.5486 93.7985C81.3141 94.1478 80.8956 94.5113 80.2906 94.8876C79.9894 95.0708 79.343 95.4017 78.3542 95.8788C78.3075 96.177 78.2849 96.4638 78.2849 96.735C78.2849 97.1284 78.3435 97.4038 78.4594 97.5586C78.5767 97.7134 78.7473 97.7915 78.9712 97.7915C79.1844 97.7915 79.419 97.7276 79.6748 97.5998C80.0173 97.428 80.5198 97.0787 81.1808 96.5519ZM78.4488 95.3463C79.287 94.9458 79.916 94.517 80.3385 94.0555C80.6237 93.7346 80.7677 93.4151 80.7677 93.0984C80.7677 92.8613 80.709 92.671 80.5917 92.529C80.4744 92.3885 80.3225 92.3174 80.1346 92.3174C79.9427 92.3174 79.7548 92.3941 79.5722 92.5503C79.3284 92.7548 79.1218 93.0658 78.9552 93.4818C78.7166 94.0924 78.5474 94.713 78.4488 95.3463Z" fill="black"/>
<path d="M84.6084 98.6406H83.445L83.9913 96.4027C84.2579 95.3037 84.4884 94.2614 84.687 93.2745C84.7337 93.0303 84.7577 92.8769 84.7577 92.8158C84.7577 92.6838 84.7004 92.617 84.5857 92.617C84.5071 92.617 84.3872 92.6738 84.2259 92.7874C84.0647 92.901 83.7728 93.1822 83.3517 93.6309L83.1091 93.3398C83.6089 92.769 84.1073 92.3402 84.6044 92.0547C85.1015 91.7693 85.4826 91.6259 85.7492 91.6259C85.8424 91.6259 85.9171 91.65 85.9717 91.6969C86.0264 91.7438 86.053 91.8034 86.053 91.8758C86.053 91.9482 86.0197 92.1399 85.9517 92.4495L85.6159 93.9391C86.1423 93.0572 86.7354 92.3032 87.3964 91.677C87.7136 91.3774 87.9787 91.2269 88.1933 91.2269C88.3492 91.2269 88.4785 91.2808 88.5838 91.3887C88.6877 91.4981 88.7397 91.6231 88.7397 91.7679C88.7397 91.917 88.6891 92.0448 88.5878 92.1513C88.4852 92.2564 88.232 92.3813 87.8255 92.5247C87.4403 92.6639 87.1272 92.83 86.8846 93.0246C86.6434 93.2177 86.3769 93.5145 86.089 93.9149C85.7998 94.3139 85.5973 94.6618 85.4826 94.9586C85.368 95.2554 85.1948 95.9441 84.9602 97.0261L84.6084 98.6406Z" fill="black"/>
<path d="M94.9381 90.3621L96.1802 89.8538L95.6178 92.184H97.2343L97.1091 92.7747H95.4925L94.8062 95.5621C94.5917 96.3999 94.485 96.9821 94.485 97.3087C94.485 97.4592 94.5157 97.5671 94.5757 97.6339C94.6356 97.7006 94.7169 97.7333 94.8209 97.7333C94.9821 97.7333 95.23 97.631 95.5632 97.4251C96.0003 97.1539 96.4174 96.8458 96.8119 96.5022L97.1091 96.8855C95.9696 97.8 95.206 98.3609 94.8209 98.5654C94.4357 98.7713 94.1265 98.8735 93.892 98.8735C93.7001 98.8735 93.5468 98.7983 93.4349 98.6492C93.3229 98.4987 93.267 98.2544 93.267 97.9165C93.267 97.5174 93.3669 96.9068 93.5641 96.0861L94.3677 92.7747H93.103L93.2443 92.184H94.501L94.9381 90.3621Z" fill="black"/>
<path d="M102.598 96.5519L102.855 96.9182C101.58 98.2104 100.487 98.8565 99.5757 98.8565C99.2065 98.8565 98.924 98.723 98.7281 98.4575C98.5336 98.1905 98.4363 97.7645 98.4363 97.1766C98.4363 95.9895 98.7748 94.8081 99.4504 93.6309C100.211 92.2947 101.119 91.6259 102.176 91.6259C102.546 91.6259 102.829 91.7253 103.023 91.9213C103.219 92.1186 103.317 92.3884 103.317 92.7335C103.317 93.0942 103.199 93.4492 102.965 93.7985C102.73 94.1478 102.312 94.5113 101.708 94.8876C101.405 95.0708 100.76 95.4017 99.7716 95.8788C99.725 96.177 99.701 96.4638 99.701 96.735C99.701 97.1284 99.7596 97.4038 99.8769 97.5586C99.9942 97.7134 100.165 97.7915 100.389 97.7915C100.602 97.7915 100.836 97.7276 101.091 97.5998C101.435 97.428 101.937 97.0787 102.598 96.5519ZM99.8649 95.3463C100.703 94.9458 101.334 94.517 101.755 94.0555C102.041 93.7346 102.184 93.4151 102.184 93.0984C102.184 92.8613 102.125 92.671 102.008 92.529C101.892 92.3885 101.739 92.3174 101.552 92.3174C101.359 92.3174 101.171 92.3941 100.99 92.5503C100.744 92.7548 100.539 93.0658 100.373 93.4818C100.133 94.0924 99.9635 94.713 99.8649 95.3463Z" fill="black"/>
<path d="M106.026 98.6406H104.863L105.409 96.4027C105.674 95.3037 105.906 94.2614 106.103 93.2745C106.15 93.0303 106.174 92.8769 106.174 92.8158C106.174 92.6838 106.117 92.617 106.002 92.617C105.923 92.617 105.805 92.6738 105.642 92.7874C105.481 92.901 105.191 93.1822 104.768 93.6309L104.527 93.3398C105.027 92.769 105.525 92.3402 106.022 92.0547C106.519 91.7693 106.9 91.6259 107.166 91.6259C107.259 91.6259 107.333 91.65 107.388 91.6969C107.443 91.7438 107.471 91.8034 107.471 91.8758C107.471 91.9482 107.436 92.1399 107.368 92.4495L107.032 93.9391C107.559 93.0572 108.152 92.3032 108.813 91.677C109.131 91.3774 109.396 91.2269 109.61 91.2269C109.766 91.2269 109.896 91.2808 110 91.3887C110.104 91.4981 110.156 91.6231 110.156 91.7679C110.156 91.917 110.105 92.0448 110.004 92.1513C109.903 92.2564 109.648 92.3813 109.243 92.5247C108.858 92.6639 108.544 92.83 108.302 93.0246C108.06 93.2177 107.795 93.5145 107.505 93.9149C107.216 94.3139 107.015 94.6618 106.9 94.9586C106.786 95.2554 106.611 95.9441 106.377 97.0261L106.026 98.6406Z" fill="black"/>
<path d="M111.459 98.6406H110.296L110.842 96.4027C111.109 95.3037 111.339 94.2614 111.538 93.2745C111.584 93.0303 111.608 92.8769 111.608 92.8158C111.608 92.6838 111.551 92.617 111.437 92.617C111.358 92.617 111.238 92.6738 111.077 92.7874C110.915 92.901 110.624 93.1822 110.202 93.6309L109.96 93.3398C110.46 92.769 110.958 92.3402 111.455 92.0547C111.952 91.7693 112.333 91.6259 112.6 91.6259C112.693 91.6259 112.768 91.65 112.823 91.6969C112.877 91.7438 112.904 91.8034 112.904 91.8758C112.904 91.9482 112.871 92.1399 112.803 92.4495L112.467 93.9391C112.993 93.0572 113.586 92.3032 114.247 91.677C114.564 91.3774 114.831 91.2269 115.044 91.2269C115.2 91.2269 115.331 91.2808 115.435 91.3887C115.539 91.4981 115.591 91.6231 115.591 91.7679C115.591 91.917 115.54 92.0448 115.439 92.1513C115.336 92.2564 115.083 92.3813 114.676 92.5247C114.291 92.6639 113.978 92.83 113.735 93.0246C113.494 93.2177 113.228 93.5145 112.94 93.9149C112.651 94.3139 112.448 94.6618 112.333 94.9586C112.22 95.2554 112.046 95.9441 111.811 97.0261L111.459 98.6406Z" fill="black"/>
<path d="M118.775 88.066C118.936 88.066 119.069 88.1228 119.173 88.2364C119.277 88.35 119.329 88.4948 119.329 88.6723C119.329 88.9166 119.249 89.1324 119.091 89.317C118.932 89.503 118.754 89.5967 118.556 89.5967C118.4 89.5967 118.27 89.5385 118.166 89.4221C118.062 89.3056 118.01 89.1523 118.01 88.9634C118.01 88.7149 118.085 88.5019 118.237 88.3273C118.387 88.1526 118.567 88.066 118.775 88.066ZM115.698 93.5727L115.356 93.2901C115.876 92.6809 116.351 92.2464 116.78 91.988C117.209 91.731 117.576 91.6018 117.877 91.6018C118.043 91.6018 118.171 91.6401 118.259 91.7182C118.348 91.7963 118.392 91.9014 118.392 92.0334C118.392 92.1953 118.223 92.8769 117.885 94.0811C117.333 96.0506 117.057 97.2377 117.057 97.6424C117.057 97.7191 117.076 97.7844 117.112 97.8369C117.148 97.8909 117.188 97.9164 117.229 97.9164C117.396 97.9164 117.822 97.5728 118.51 96.8855L118.813 97.2008C118.101 97.9164 117.581 98.3737 117.252 98.5739C116.924 98.7741 116.656 98.8735 116.449 98.8735C116.266 98.8735 116.122 98.8125 116.015 98.6904C115.909 98.5682 115.856 98.3992 115.856 98.1834C115.856 97.489 116.246 95.795 117.025 93.0984C117.063 92.9721 117.081 92.8584 117.081 92.7576C117.081 92.6469 117.033 92.5915 116.94 92.5915C116.836 92.5915 116.718 92.6355 116.584 92.725C116.452 92.813 116.157 93.097 115.698 93.5727Z" fill="black"/>
<path d="M122.109 90.3621L123.351 89.8538L122.788 92.184H124.405L124.28 92.7747H122.663L121.977 95.5621C121.764 96.3999 121.657 96.9821 121.657 97.3087C121.657 97.4592 121.686 97.5671 121.746 97.6339C121.806 97.7006 121.887 97.7333 121.993 97.7333C122.154 97.7333 122.401 97.631 122.734 97.4251C123.171 97.1539 123.588 96.8458 123.984 96.5022L124.28 96.8855C123.14 97.8 122.378 98.3609 121.993 98.5654C121.608 98.7713 121.297 98.8735 121.063 98.8735C120.871 98.8735 120.719 98.7983 120.607 98.6492C120.495 98.4987 120.439 98.2544 120.439 97.9165C120.439 97.5174 120.537 96.9068 120.735 96.0861L121.54 92.7747H120.275L120.415 92.184H121.672L122.109 90.3621Z" fill="black"/>
<path d="M129.55 91.6429C130.061 91.6429 130.484 91.8588 130.823 92.2919C131.162 92.725 131.331 93.3271 131.331 94.0981C131.331 95.3292 130.924 96.434 130.113 97.4138C129.3 98.3922 128.441 98.8821 127.535 98.8821C126.978 98.8821 126.529 98.6875 126.189 98.2999C125.848 97.9108 125.677 97.3811 125.677 96.7095C125.677 95.5451 125.989 94.4687 126.614 93.4818C127.401 92.2564 128.379 91.6429 129.55 91.6429ZM128.887 92.2677C128.444 92.2677 128.016 92.6043 127.602 93.2774C127.189 93.9518 126.981 94.8819 126.981 96.0691C126.981 96.7904 127.109 97.3584 127.363 97.7745C127.551 98.0798 127.8 98.2331 128.114 98.2331C128.551 98.2331 128.949 97.9449 129.308 97.3669C129.766 96.6186 129.995 95.6899 129.995 94.5795C129.995 93.7488 129.89 93.1552 129.68 92.8002C129.468 92.4452 129.204 92.2677 128.887 92.2677Z" fill="black"/>
<path d="M134.157 98.6406H132.994L133.54 96.4027C133.806 95.3037 134.038 94.2614 134.235 93.2745C134.281 93.0303 134.305 92.8769 134.305 92.8158C134.305 92.6838 134.248 92.617 134.133 92.617C134.055 92.617 133.936 92.6738 133.774 92.7874C133.612 92.901 133.322 93.1822 132.899 93.6309L132.658 93.3398C133.158 92.769 133.656 92.3402 134.153 92.0547C134.651 91.7693 135.032 91.6259 135.297 91.6259C135.39 91.6259 135.465 91.65 135.519 91.6969C135.574 91.7438 135.602 91.8034 135.602 91.8758C135.602 91.9482 135.567 92.1399 135.5 92.4495L135.164 93.9391C135.69 93.0572 136.283 92.3032 136.944 91.677C137.263 91.3774 137.528 91.2269 137.741 91.2269C137.897 91.2269 138.028 91.2808 138.132 91.3887C138.235 91.4981 138.287 91.6231 138.287 91.7679C138.287 91.917 138.237 92.0448 138.136 92.1513C138.034 92.2564 137.78 92.3813 137.375 92.5247C136.989 92.6639 136.675 92.83 136.434 93.0246C136.191 93.2177 135.926 93.5145 135.637 93.9149C135.348 94.3139 135.146 94.6618 135.032 94.9586C134.917 95.2554 134.743 95.9441 134.508 97.0261L134.157 98.6406Z" fill="black"/>
<path d="M138.124 93.3327L137.873 92.9408L138.451 92.5248C139.014 92.1144 139.408 91.8517 139.637 91.7352C139.768 91.6685 139.888 91.6344 139.997 91.6344C140.107 91.6344 140.21 91.7012 140.309 91.8347C140.768 92.4495 141.153 93.2802 141.465 94.3267C141.778 95.3718 141.934 96.3857 141.934 97.3669C141.934 97.4947 141.928 97.6893 141.918 97.9505C142.797 96.2253 143.238 94.855 143.238 93.8397C143.238 93.6295 143.193 93.3484 143.105 92.999C143.012 92.6114 142.964 92.3331 142.964 92.1669C142.964 92.0065 143.013 91.873 143.109 91.7679C143.205 91.6628 143.326 91.6103 143.472 91.6103C143.654 91.6103 143.801 91.6841 143.913 91.8347C144.025 91.9838 144.081 92.1982 144.081 92.4751C144.081 93.1907 143.927 94.0825 143.621 95.1503C143.313 96.2182 142.831 97.3655 142.172 98.5952C141.514 99.8235 140.911 100.735 140.368 101.332C139.824 101.928 139.298 102.355 138.791 102.614C138.283 102.871 137.802 103 137.351 103C137.007 103 136.747 102.932 136.574 102.797C136.399 102.661 136.311 102.499 136.311 102.31C136.311 102.144 136.379 102 136.515 101.881C136.65 101.762 136.832 101.702 137.061 101.702C137.239 101.702 137.48 101.738 137.788 101.81C138.115 101.888 138.339 101.927 138.459 101.927C138.776 101.927 139.112 101.786 139.465 101.502C139.951 101.114 140.334 100.651 140.618 100.113C140.902 99.575 141.043 99.0312 141.043 98.483C141.043 97.712 140.938 96.7847 140.728 95.7027C140.517 94.6221 140.218 93.7957 139.833 93.2234C139.64 92.9295 139.435 92.7832 139.216 92.7832C138.962 92.7832 138.597 92.9664 138.124 93.3327Z" fill="black"/>
<path d="M75.7528 47.5924H74.2658C74.5801 45.9529 74.7348 44.8981 74.7348 44.4282C74.7348 43.7834 74.5238 43.3036 74.1016 42.9937C73.6794 42.6788 72.8865 42.5238 71.7137 42.5238L69.9545 42.5538L69.3774 42.5238H63.8793C63.7667 42.9737 63.4759 44.1184 62.9974 45.9528C62.0075 49.7418 61.2569 52.8459 60.7455 55.2652H66.1029C67.4071 55.2652 68.2468 55.1302 68.6315 54.8553C69.0162 54.5804 69.34 53.8906 69.5933 52.7759H71.0804C70.5127 55.2352 70.0155 57.8045 69.5933 60.4787H68.0826C68.2093 59.364 68.275 58.7143 68.275 58.5143C68.275 58.0494 68.0545 57.6945 67.6182 57.4646C67.3602 57.3246 66.6612 57.2397 65.526 57.1997H60.2764C59.7463 59.9139 59.0474 62.8431 58.1889 65.9872C57.3257 69.1263 56.5845 71.5606 55.9605 73.2801C57.4289 73.53 58.7376 73.66 59.8917 73.66C60.6423 73.66 61.3835 73.59 62.1201 73.4551L61.6509 75.1246C61.1208 75.1996 60.6236 75.2396 60.1686 75.2396C59.7651 75.2396 58.4984 75.1696 56.3733 75.0346C55.1113 74.9396 54.0371 74.8897 53.1552 74.8897C51.3819 74.8897 49.4819 75.0646 47.4694 75.4145L47.7977 73.8049C49.4302 73.4351 50.5046 73.0452 51.0253 72.6353C51.5507 72.2254 51.9495 71.7256 52.2216 71.1408C52.7893 69.9511 53.8541 66.2571 55.4116 60.0689L59.615 42.5238C57.1614 42.6038 55.0129 43.1886 53.1692 44.2833C51.3303 45.378 49.8618 46.8426 48.7735 48.6921C47.6851 50.5366 47.1362 52.406 47.1362 54.3005C47.1362 55.0603 47.2302 55.8401 47.4131 56.6398C47.5023 57.0897 47.7601 57.7345 48.1823 58.5743C48.7125 59.609 48.9799 60.3338 48.9799 60.7437C48.9799 61.1536 48.8251 61.5085 48.5108 61.8134C48.2011 62.1133 47.7977 62.2632 47.3004 62.2632C46.5686 62.2632 45.9728 61.8534 45.5178 61.0336C44.8938 59.9439 44.5796 58.3893 44.5796 56.3799C44.5796 52.456 46.0197 48.842 48.8955 45.543C51.7759 42.2589 55.5664 40.6193 60.2764 40.6193H70.8317C72.0045 40.6193 73.2947 40.5444 74.7067 40.3844C75.1289 40.3494 76.0343 40.1445 77.4276 39.7696C76.494 43.8534 75.9358 46.4577 75.7528 47.5924Z" fill="black"/>
<path d="M84.1564 67.8317L85.09 68.8864C83.6592 70.6009 81.9703 72.1705 80.0188 73.5851C78.0672 74.9997 76.4581 75.7095 75.1961 75.7095C74.6238 75.7095 74.1594 75.4795 73.7935 75.0197C73.4276 74.5598 73.2446 73.9299 73.2446 73.1302C73.2446 71.5706 73.8123 68.3266 74.9476 63.4079L77.9171 50.5515C78.9961 45.9028 79.9014 42.7887 80.638 41.2092C81.7733 38.8048 83.3824 36.9404 85.4606 35.6108C87.5389 34.2861 89.7343 33.6213 92.0424 33.6213C92.8305 33.6213 93.4497 33.8213 93.9001 34.2211C94.3505 34.621 94.571 35.1059 94.571 35.6707C94.571 36.2955 94.3552 36.8104 93.9143 37.2103C93.4733 37.6101 92.8306 37.8101 91.9908 37.8101C91.4373 37.8101 90.6585 37.7101 89.6545 37.5152C88.7726 37.3602 87.9563 37.2803 87.2057 37.2803C86.4551 37.2803 85.8876 37.4502 85.5029 37.7801C84.9728 38.25 84.4895 39.2347 84.0579 40.7393C83.6263 42.2439 82.9273 45.208 81.9562 49.6418L79.2354 61.9133C77.8796 68.0666 77.1993 71.2757 77.1993 71.5506C77.1993 72.1755 77.4104 72.4854 77.8326 72.4854C78.2361 72.4854 78.8225 72.2354 79.5919 71.7255C81.1118 70.7108 82.6318 69.4112 84.1564 67.8317Z" fill="black"/>
<path d="M99.8486 50.2566C101.645 50.2566 103.142 51.0164 104.329 52.541C105.52 54.0655 106.116 56.1849 106.116 58.8992C106.116 63.233 104.69 67.1219 101.828 70.5709C98.9713 74.0149 95.9455 75.7394 92.7602 75.7394C90.7993 75.7394 89.2182 75.0546 88.0173 73.69C86.8163 72.3204 86.2158 70.4559 86.2158 68.0916C86.2158 63.9928 87.3183 60.2038 89.5138 56.7298C92.2816 52.416 95.725 50.2566 99.8486 50.2566ZM97.5124 52.456C95.9549 52.456 94.4489 53.6406 92.99 56.01C91.5357 58.3843 90.8086 61.6584 90.8086 65.8372C90.8086 68.3765 91.2543 70.376 92.155 71.8405C92.8118 72.9152 93.6937 73.4551 94.7914 73.4551C96.3302 73.4551 97.7328 72.4404 98.9995 70.4059C100.609 67.7717 101.416 64.5026 101.416 60.5937C101.416 57.6695 101.045 55.5801 100.304 54.3305C99.5625 53.0808 98.6336 52.456 97.5124 52.456Z" fill="black"/>
<path d="M112.88 74.8897H108.785L110.708 67.0119C111.642 63.143 112.458 59.474 113.157 56C113.321 55.1402 113.401 54.6004 113.401 54.3854C113.401 53.9206 113.199 53.6856 112.796 53.6856C112.524 53.6856 112.102 53.8856 111.534 54.2854C110.966 54.6853 109.939 55.6751 108.456 57.2546L107.603 56.2299C109.362 54.2205 111.116 52.7109 112.866 51.7062C114.616 50.7015 115.958 50.1966 116.891 50.1966C117.224 50.1966 117.482 50.2816 117.675 50.4466C117.867 50.6115 117.966 50.8214 117.966 51.0764C117.966 51.3313 117.848 52.0061 117.609 53.0958L116.427 58.3393C118.275 55.2352 120.367 52.5809 122.694 50.3766C123.811 49.3218 124.744 48.792 125.495 48.792C126.049 48.792 126.504 48.9819 126.87 49.3618C127.236 49.7467 127.423 50.1867 127.423 50.6965C127.423 51.2214 127.24 51.6712 126.884 52.0461C126.527 52.416 125.636 52.8559 124.205 53.3607C122.849 53.8506 121.747 54.4354 120.893 55.1202C120.039 55.8 119.106 56.8447 118.088 58.2544C117.074 59.659 116.361 60.8836 115.958 61.9283C115.554 62.973 114.94 65.3973 114.119 69.2062L112.88 74.8897Z" fill="black"/>
<path d="M137.317 37.6652C137.885 37.6652 138.35 37.8651 138.72 38.265C139.086 38.6649 139.269 39.1748 139.269 39.7996C139.269 40.6594 138.988 41.4191 138.429 42.069C137.871 42.7238 137.242 43.0537 136.548 43.0537C135.995 43.0537 135.54 42.8488 135.174 42.4389C134.808 42.029 134.62 41.4892 134.62 40.8244C134.62 39.9496 134.887 39.1998 135.418 38.585C135.952 37.9702 136.581 37.6652 137.317 37.6652ZM126.485 57.0498L125.275 56.055C127.109 53.9106 128.779 52.3811 130.295 51.4714C131.805 50.5666 133.091 50.1117 134.156 50.1117C134.742 50.1117 135.192 50.2467 135.502 50.5216C135.812 50.7966 135.971 51.1664 135.971 51.6313C135.971 52.2012 135.375 54.6005 134.184 58.8393C132.242 65.7723 131.27 69.9511 131.27 71.3757C131.27 71.6457 131.332 71.8756 131.463 72.0605C131.59 72.2505 131.726 72.3404 131.876 72.3404C132.462 72.3404 133.963 71.1308 136.379 68.7115L137.454 69.8212C134.944 72.3404 133.109 73.95 131.955 74.6548C130.801 75.3596 129.858 75.7095 129.127 75.7095C128.484 75.7095 127.977 75.4946 127.597 75.0647C127.222 74.6348 127.034 74.04 127.034 73.2802C127.034 70.8359 128.409 64.8726 131.158 55.3803C131.289 54.9354 131.35 54.5355 131.35 54.1806C131.35 53.7907 131.186 53.5957 130.858 53.5957C130.492 53.5957 130.074 53.7507 129.605 54.0656C129.141 54.3755 128.099 55.3753 126.485 57.0498Z" fill="black"/>
<path d="M146.799 45.748L151.171 43.9585L149.191 52.1612H154.882L154.441 54.2406H148.75L146.334 64.0529C145.579 67.002 145.204 69.0514 145.204 70.2011C145.204 70.7309 145.311 71.1109 145.523 71.3458C145.734 71.5807 146.02 71.6957 146.386 71.6957C146.954 71.6957 147.826 71.3358 148.999 70.611C150.538 69.6563 152.006 68.5716 153.395 67.3619L154.441 68.7115C150.43 71.9306 147.742 73.905 146.386 74.6248C145.03 75.3496 143.942 75.7096 143.116 75.7096C142.44 75.7096 141.901 75.4446 141.507 74.9198C141.113 74.3899 140.916 73.5301 140.916 72.3405C140.916 70.9359 141.268 68.7865 141.962 65.8973L144.791 54.2406H140.339L140.836 52.1612H145.26L146.799 45.748Z" fill="black"/>
<path d="M157.026 56.2049L156.144 54.8253L158.179 53.3607C160.159 51.9161 161.553 50.9913 162.359 50.5815C162.815 50.3465 163.237 50.2266 163.621 50.2266C164.006 50.2266 164.372 50.4615 164.724 50.9314C166.333 53.0958 167.689 56.0199 168.791 59.7039C169.889 63.3828 170.438 66.9519 170.438 70.4059C170.438 70.8558 170.419 71.5406 170.386 72.4603C173.482 66.387 175.03 61.5634 175.03 57.9894C175.03 57.2496 174.876 56.2599 174.561 55.0302C174.233 53.6656 174.069 52.6859 174.069 52.101C174.069 51.5362 174.238 51.0664 174.576 50.6965C174.913 50.3266 175.34 50.1416 175.856 50.1416C176.494 50.1416 177.015 50.4016 177.409 50.9314C177.803 51.4563 178 52.211 178 53.1857C178 55.705 177.456 58.8441 176.377 62.6031C175.293 66.362 173.595 70.4009 171.278 74.7297C168.96 79.0535 166.844 82.2625 164.926 84.3619C163.012 86.4613 161.163 87.9659 159.376 88.8756C157.588 89.7804 155.9 90.2353 154.305 90.2353C153.094 90.2353 152.184 89.9954 151.57 89.5205C150.955 89.0407 150.65 88.4708 150.65 87.806C150.65 87.2212 150.885 86.7163 151.363 86.2964C151.837 85.8765 152.48 85.6666 153.287 85.6666C153.91 85.6666 154.76 85.7915 155.843 86.0465C156.997 86.3214 157.785 86.4564 158.208 86.4564C159.324 86.4564 160.506 85.9615 161.754 84.9618C163.457 83.5972 164.808 81.9677 165.807 80.0732C166.807 78.1787 167.304 76.2642 167.304 74.3348C167.304 71.6205 166.933 68.3565 166.192 64.5476C165.451 60.7436 164.4 57.8344 163.044 55.82C162.369 54.7853 161.642 54.2705 160.872 54.2705C159.976 54.2705 158.691 54.9152 157.026 56.2049Z" fill="black"/>
<path fill-rule="evenodd" clip-rule="evenodd" d="M63.2898 25.5118L63.5558 24.7984C64.5622 22.8207 76.5727 28.8762 59.9944 37.2721C73.3163 29.5355 66.9451 25.8712 63.2898 25.5118Z" fill="black"/>
<path d="M64.3083 27.7227C65.1592 27.7227 65.849 26.9875 65.849 26.0807C65.849 25.1738 65.1592 24.4386 64.3083 24.4386C63.4574 24.4386 62.7676 25.1738 62.7676 26.0807C62.7676 26.9875 63.4574 27.7227 64.3083 27.7227Z" fill="black"/>
<path fill-rule="evenodd" clip-rule="evenodd" d="M70.926 22.2127L71.6989 21.3538C74.2417 19.1461 88.8979 35.6409 59.804 37.0749C83.7069 34.4926 76.1713 25.0897 70.926 22.2127Z" fill="black"/>
<path d="M71.3593 25.9778C72.6206 26.5251 74.0305 25.9103 74.5085 24.6045C74.9865 23.2987 74.3516 21.7963 73.0903 21.249C71.8291 20.7016 70.4191 21.3164 69.9411 22.6222C69.4631 23.928 70.0981 25.4304 71.3593 25.9778Z" fill="black"/>
<path d="M46.4602 44.7596C44.7529 44.7596 43.0455 44.7596 41.3382 44.4564C28.8179 42.9404 17.1512 38.3925 7.47642 29.903C3.20812 26.2646 0.647145 21.4135 0.078039 15.3496C-0.77562 6.86014 5.48455 0.493029 13.452 1.40262C18.8585 2.00901 23.1268 4.43457 27.1106 8.37612C35.9317 18.0784 43.3244 29.2905 48.1618 41.7216C48.1618 42.0248 48.1675 41.4244 48.1675 41.7276C46.7447 39.9085 45.6065 37.7861 44.1838 35.9669C39.3463 28.9934 34.2244 22.0199 27.9642 16.2592C25.1187 13.5304 21.7041 11.1049 17.7203 10.1953C14.5902 9.58889 12.0293 10.4985 10.0374 12.924C8.04552 15.3496 8.33008 18.0784 9.18374 20.8071C10.6065 24.4455 12.8829 27.1742 15.7285 29.5998C21.135 34.4509 27.6797 37.7861 34.5089 40.2116C38.2081 42.0308 42.1919 43.2436 46.4602 44.7596Z" fill="black"/>
<path fill-rule="evenodd" clip-rule="evenodd" d="M51.9685 40.0764C51.9508 40.0991 51.9332 40.1196 51.9155 40.1412C51.9306 40.1196 51.9455 40.0991 51.9604 40.0764C51.963 40.0764 51.9658 40.0764 51.9685 40.0764Z" fill="black"/>
<path fill-rule="evenodd" clip-rule="evenodd" d="M47.9147 36.5573C47.9155 36.5605 47.9162 36.5647 47.9171 36.569C47.9155 36.5647 47.914 36.5615 47.9124 36.5583C47.9132 36.5573 47.914 36.5573 47.9147 36.5573Z" fill="black"/>
<path fill-rule="evenodd" clip-rule="evenodd" d="M47.9123 36.5583C47.666 35.9565 47.455 35.3557 47.3139 34.7538C45.3221 29.2969 43.8992 23.5359 43.0456 17.4717C42.4765 13.2272 43.3302 8.67962 45.3221 5.04133C49.0212 -1.62904 56.7042 -1.62905 60.6879 4.73822C61.8261 6.85993 62.6798 8.98271 62.6798 11.7106C63.2456 21.3568 57.9025 32.7934 51.9685 40.0765H51.9603C52.7629 38.9085 53.3211 37.7296 54.1432 36.2704C56.4196 31.7217 58.696 26.871 59.2652 21.7162C59.8343 18.0779 59.2652 14.4396 57.8424 11.1044C56.9887 9.28582 55.566 7.76923 53.2895 7.76923C51.0131 7.76923 49.3058 8.67961 48.1676 10.8013C47.3139 12.621 46.7448 14.7427 46.4602 16.5624C45.9117 22.1145 46.8284 30.7799 47.9145 36.5573C47.9138 36.5573 47.9131 36.5573 47.9123 36.5583Z" fill="black"/>
<path fill-rule="evenodd" clip-rule="evenodd" d="M41.3384 50.8484C41.3389 50.8463 41.3396 50.8441 41.3401 50.843C41.3392 50.9056 41.3385 50.9586 41.3384 50.8484Z" fill="black"/>
<path fill-rule="evenodd" clip-rule="evenodd" d="M41.3398 50.8427C41.3409 50.7661 41.342 50.6754 41.342 50.8363C41.3412 50.8384 41.3406 50.8406 41.3398 50.8427Z" fill="black"/>
<path fill-rule="evenodd" clip-rule="evenodd" d="M42.5671 45.9966C42.5716 45.9966 42.5761 45.9966 42.5806 45.9966C42.5765 45.9977 42.5724 45.9977 42.5682 45.9988C42.5678 45.9977 42.5674 45.9966 42.5671 45.9966Z" fill="black"/>
<path fill-rule="evenodd" clip-rule="evenodd" d="M41.3385 50.8484C39.6311 56.3009 37.0675 61.4374 33.371 65.3766C31.6637 67.1963 29.6718 68.7118 27.1108 69.318C21.7043 70.5304 17.436 65.9828 18.5742 60.2229C19.1433 57.1908 20.566 54.7649 22.558 52.6421C27.9487 47.5035 35.4716 45.7065 42.5673 45.9966C42.5676 45.9966 42.568 45.9977 42.5684 45.9988C38.0956 46.6299 34.1642 48.4322 29.9563 50.8235C28.8181 51.4297 27.6799 52.339 26.5417 53.2494C25.688 54.1587 24.8344 55.068 24.2653 55.9773C22.8425 58.4032 22.8425 61.1321 24.5498 62.9508C26.2571 64.7704 28.5336 65.0735 31.0945 63.558C34.5091 61.7384 36.5011 58.4032 38.7775 55.3711C39.6311 53.8556 40.4848 52.6421 41.3385 50.8235C41.3385 50.8321 41.3385 50.8408 41.3385 50.8484Z" fill="black"/>
<path fill-rule="evenodd" clip-rule="evenodd" d="M50.1581 38.0129C50.1581 38.0129 48.1274 30.6736 48.6803 27.8652C49.0577 25.9484 50.8518 24.7453 52.6846 25.1799C54.5174 25.6145 55.6994 27.5233 55.322 29.4401C54.7692 32.2485 50.1581 38.0129 50.1581 38.0129Z" fill="black"/>
<path fill-rule="evenodd" clip-rule="evenodd" d="M44.7724 41.7426C44.7724 41.7426 35.8115 39.2466 33.0917 36.9496C31.4505 35.5636 31.2895 33.1551 32.7328 31.5747C34.1761 29.9943 36.6808 29.8364 38.322 31.2225C41.0418 33.5194 44.7724 41.7426 44.7724 41.7426Z" fill="black"/>
<path fill-rule="evenodd" clip-rule="evenodd" d="M42.8439 46.9205C42.8439 46.9205 39.8719 52.996 37.9832 54.4887C36.7001 55.5027 35.0157 55.1641 34.2237 53.7331C33.4317 52.3021 33.8299 50.317 35.113 49.3029C37.0017 47.8103 42.8439 46.9205 42.8439 46.9205Z" fill="black"/>
</svg>
